<?xml version="1.0" encoding="utf-8"?>
<!-- Generator: Adobe Illustrator 26.3.1, SVG Export Plug-In . SVG Version: 6.00 Build 0)  -->
<svg version="1.1" id="Layer_1" xmlns="http://www.w3.org/2000/svg" xmlns:xlink="http://www.w3.org/1999/xlink" x="0px" y="0px"
	 viewBox="0 0 907.1 354.3" style="enable-background:new 0 0 907.1 354.3;" xml:space="preserve">
<style type="text/css">
	.st0{fill:#1C66B0;}
	.st1{fill:#2870B4;}
	.st2{fill:#EAEAEC;}
	.st3{fill:#FFFFFF;}
</style>
<g>
	<path class="st0" d="M37.7,349.6c0,0,155.3-203.3,244.2-274.5c0,0,54.8,51.4,25,131.2c0,0-22.7,74-101.9,88.5
		c0,0-39.4,7.2-84.1-13.9c0,0,88.9,38.5,136-36.1c0,0,28.4-35.6,6.3-98.5l-3.8-0.5C259.3,145.8,147.3,239.5,37.7,349.6z"/>
	<path class="st1" d="M260.2,145.8l27.9-24.5c0,0,21.6,63-17.8,117.8c0,0-18.3,28.8-65.9,48.1c0,0,50.7-17.3,64.5-73.8
		C269,213.4,275.9,173.1,260.2,145.8z"/>
	<path class="st0" d="M93.9,263.1c0,0,138.4-173.5,250.9-256.7c0,0-76.9,23.8-256.5,184.6c0,0-25.7-51.9,3-98.4
		c0,0,15.5-25.6,39.5-36.5c18.5-8.3,43.9-11.6,70.2-0.2c0,0-69.7,63.9-93.3,106.2c0,0,66.8-68.3,140.4-119.7c0,0-67.2-40.4-137,0.5
		c0,0-80.3,48.1-62,147.6C49.2,190.5,62.7,240,93.9,263.1z"/>
	<path class="st1" d="M93.9,263.1l-5.3-44.5c0,0,103.9-118.4,256.3-212.7c0,0-117.7,108-155.7,146.9
		C189.2,152.8,100.6,253,93.9,263.1z"/>
	<g>
		<path class="st0" d="M362.4,62.6c-1.3-3-3.1-5.7-5.4-8s-5-4.1-8-5.4c-3.1-1.3-6.4-2-9.8-2s-6.7,0.7-9.8,2c-3,1.3-5.7,3.1-8,5.4
			c-2.3,2.3-4.1,5-5.4,8c-1.3,3.1-2,6.4-2,9.8s0.7,6.7,2,9.8c1.3,3,3.1,5.7,5.4,8s5,4.1,8,5.4c3.1,1.3,6.4,2,9.8,2s6.7-0.7,9.8-2
			c3-1.3,5.7-3.1,8-5.4s4.1-5,5.4-8c1.3-3.1,2-6.4,2-9.8S363.7,65.7,362.4,62.6z M339.1,94.5c-12.2,0-22.1-9.9-22.1-22.1
			s9.9-22.1,22.1-22.1s22.1,9.9,22.1,22.1S351.3,94.5,339.1,94.5z"/>
		<path class="st0" d="M348.6,77.2c-0.7-1.7-1.7-3-2.9-4.1c2.8-1.5,4.1-3.9,4.1-7.1c0-2.6-1.1-4.7-3.2-6.3c-2.1-1.5-4.8-2.2-8.3-2.2
			c-2.3,0-4.9,0.3-7.7,0.8l-0.4,0.1v28.8h4.8V74.9h4.2c3.5,0,5.8,4,6.8,11.9l0.1,0.5h4.8l-0.1-0.6C350.1,82.4,349.4,79.2,348.6,77.2
			z M343.7,69.6c-1,0.8-2.6,1.1-4.7,1.1h-4V62c0.9-0.1,2.1-0.1,3.4-0.1c4.6,0,6.8,1.4,6.8,4.4C345.1,67.8,344.7,68.9,343.7,69.6z"/>
	</g>
</g>
<g>
	<path class="st2" d="M576.2,272.6c0,1.6-0.3,3.1-1,4.4s-1.6,2.4-2.9,3.3c-1.3,0.9-2.8,1.6-4.7,2.1c-1.8,0.5-4,0.7-6.3,0.7
		c-2.2,0-4.2-0.2-5.9-0.5s-3.2-0.8-4.5-1.5s-2.3-1.6-3.1-2.8c-0.8-1.2-1.4-2.6-1.8-4.3l6-1.1c0.3,1.1,0.7,2.1,1.2,2.8
		c0.6,0.7,1.2,1.2,2,1.6s1.7,0.7,2.7,0.8c1,0.1,2.2,0.2,3.4,0.2s2.3-0.1,3.4-0.3c1-0.2,1.9-0.5,2.7-0.9s1.4-0.9,1.8-1.6
		c0.4-0.6,0.6-1.4,0.6-2.4s-0.3-1.8-0.8-2.4c-0.6-0.6-1.3-1.2-2.3-1.6s-2.1-0.8-3.4-1.1c-1.3-0.3-2.7-0.6-4.2-0.9s-2.9-0.6-4.3-1.1
		c-1.4-0.4-2.6-1-3.7-1.7c-1.1-0.7-2-1.6-2.6-2.7c-0.7-1.1-1-2.5-1-4.1s0.3-3,0.9-4.2c0.6-1.2,1.5-2.3,2.7-3.1
		c1.2-0.9,2.6-1.5,4.4-2c1.7-0.5,3.8-0.7,6-0.7c1.9,0,3.6,0.2,5.2,0.5c1.6,0.3,3,0.8,4.2,1.6s2.2,1.6,3,2.7c0.8,1.1,1.4,2.4,1.7,4
		l-6.1,0.8c-0.2-0.9-0.5-1.7-1-2.3s-1.1-1.1-1.8-1.5s-1.5-0.6-2.4-0.8s-1.8-0.2-2.8-0.2c-2.5,0-4.4,0.4-5.7,1.2s-1.9,1.9-1.9,3.4
		c0,0.9,0.2,1.6,0.7,2.2s1.1,1,2,1.4c0.8,0.4,1.8,0.7,3,1s2.5,0.6,3.9,0.9c1.6,0.3,3.2,0.7,4.7,1.2s2.9,1.1,4.1,1.8
		c1.2,0.7,2.2,1.7,2.9,2.9C575.8,269.4,576.2,270.9,576.2,272.6z"/>
	<path class="st2" d="M617.1,265.3c0,2.6-0.4,5-1.1,7.2c-0.7,2.2-1.9,4.1-3.3,5.6c-1.5,1.6-3.3,2.8-5.5,3.7
		c-2.2,0.9-4.8,1.3-7.7,1.3c-2.8,0-5.3-0.4-7.5-1.3s-4-2.1-5.5-3.6c-1.5-1.6-2.6-3.4-3.4-5.6c-0.8-2.2-1.1-4.6-1.1-7.2
		c0-2.5,0.4-4.9,1.1-7.1c0.7-2.2,1.8-4,3.3-5.6s3.3-2.8,5.5-3.7s4.8-1.3,7.8-1.3c3.1,0,5.8,0.4,8,1.3c2.2,0.9,4,2.1,5.4,3.7
		c1.4,1.6,2.4,3.4,3.1,5.6C616.7,260.3,617.1,262.7,617.1,265.3z M609.8,265.3c0-2.2-0.2-4.1-0.7-5.7c-0.4-1.6-1.1-2.9-1.9-4
		c-0.9-1-1.9-1.8-3.2-2.3s-2.7-0.7-4.3-0.7c-3.4,0-6,1-7.8,3.1s-2.7,5.3-2.7,9.6c0,2.2,0.2,4.1,0.7,5.7s1.2,2.9,2.1,4
		c0.9,1,1.9,1.8,3.2,2.3c1.2,0.5,2.6,0.8,4.1,0.8c1.7,0,3.2-0.2,4.5-0.7s2.4-1.3,3.3-2.3c0.9-1,1.6-2.4,2.1-4
		C609.5,269.4,609.8,267.5,609.8,265.3z"/>
	<path class="st2" d="M625.3,282.5v-48.6h6.9v48.6H625.3z"/>
	<path class="st2" d="M649.1,248.2v19.2c0,1.5,0.1,2.9,0.4,4.1c0.3,1.3,0.7,2.3,1.4,3.2c0.6,0.9,1.5,1.6,2.5,2.1
		c1.1,0.5,2.4,0.8,3.9,0.8c1.4,0,2.8-0.3,4-0.8c1.2-0.6,2.2-1.3,3-2.3s1.5-2.2,2-3.5c0.5-1.4,0.7-2.9,0.7-4.5v-18.3h7v26.3
		c0,0.8,0,1.6,0,2.4s0,1.6,0,2.4s0.1,1.8,0.1,3.1h-6.6c-0.1-1.3-0.1-2.4-0.2-3.1c0-0.7-0.1-1.5-0.1-2.2s0-1.4,0-1.9H667
		c-1.4,2.8-3.1,4.8-5.1,6s-4.5,1.9-7.3,1.9c-2.3,0-4.2-0.4-5.8-1.1s-2.9-1.7-3.9-2.9c-1-1.3-1.7-2.7-2.1-4.4
		c-0.4-1.7-0.7-3.5-0.7-5.4v-21.1L649.1,248.2L649.1,248.2z"/>
	<path class="st2" d="M696.6,282.7c-1.2,0.2-2.5,0.2-3.9,0.2c-2.5,0-4.4-0.7-5.8-2.1c-1.3-1.4-2-3.6-2-6.4v-21.2h-4.5v-5h4.5
		l2.3-8.2h4.6v8.2h7.7v5h-7.7v19.7c0,1.7,0.4,3,1.1,3.8c0.7,0.8,1.8,1.2,3.2,1.2c0.6,0,1.2-0.1,2-0.2c0.7-0.1,1.4-0.2,2-0.3v4.6
		C699,282.4,697.8,282.6,696.6,282.7z"/>
	<path class="st2" d="M706.7,239.9v-6.1h6.9v6.1H706.7z M706.7,282.5v-34.2h6.9v34.2H706.7z"/>
	<path class="st2" d="M757,265.3c0,2.6-0.4,5-1.1,7.2c-0.7,2.2-1.9,4.1-3.3,5.6c-1.5,1.6-3.3,2.8-5.5,3.7c-2.2,0.9-4.8,1.3-7.7,1.3
		c-2.8,0-5.3-0.4-7.5-1.3s-4-2.1-5.5-3.6c-1.5-1.6-2.6-3.4-3.4-5.6c-0.8-2.2-1.1-4.6-1.1-7.2c0-2.5,0.4-4.9,1.1-7.1
		c0.7-2.2,1.8-4,3.3-5.6s3.3-2.8,5.5-3.7s4.8-1.3,7.8-1.3c3.1,0,5.8,0.4,8,1.3c2.2,0.9,4,2.1,5.4,3.7c1.4,1.6,2.5,3.4,3.1,5.6
		C756.7,260.3,757,262.7,757,265.3z M749.8,265.3c0-2.2-0.2-4.1-0.7-5.7c-0.4-1.6-1.1-2.9-1.9-4c-0.9-1-1.9-1.8-3.2-2.3
		s-2.7-0.7-4.4-0.7c-3.4,0-6,1-7.8,3.1s-2.7,5.3-2.7,9.6c0,2.2,0.2,4.1,0.7,5.7s1.2,2.9,2.1,4c0.9,1,1.9,1.8,3.2,2.3
		c1.2,0.5,2.6,0.8,4.1,0.8c1.7,0,3.2-0.2,4.5-0.7s2.4-1.3,3.3-2.3c0.9-1,1.6-2.4,2.1-4C749.5,269.4,749.8,267.5,749.8,265.3z"/>
	<path class="st2" d="M790.1,282.5v-19.3c0-1.6-0.2-3-0.5-4.2c-0.3-1.3-0.8-2.3-1.4-3.2c-0.7-0.9-1.5-1.6-2.6-2.1
		c-1-0.5-2.3-0.7-3.8-0.7c-1.4,0-2.7,0.3-3.9,0.8s-2.2,1.3-3.1,2.3c-0.9,1-1.5,2.2-2,3.5c-0.5,1.4-0.7,2.9-0.7,4.5v18.4h-6.9V256
		c0-0.7,0-1.5,0-2.3s0-1.6-0.1-2.3c0-0.7-0.1-1.7-0.2-3h6.6c0.1,1.3,0.1,2.3,0.2,3.1s0.1,1.5,0.1,2.2c0,0.8,0,1.4,0,1.8h0.1
		c1.4-2.7,3.1-4.7,5.1-6c2.1-1.3,4.5-1.9,7.3-1.9c2.3,0,4.3,0.4,5.9,1.1c1.6,0.7,2.9,1.7,3.9,2.9s1.7,2.7,2.1,4.4
		c0.4,1.7,0.7,3.5,0.7,5.4v21.2h-6.8V282.5z"/>
	<path class="st2" d="M834.4,272.6c0,1.6-0.3,3.1-1,4.4s-1.6,2.4-2.9,3.3c-1.3,0.9-2.8,1.6-4.7,2.1c-1.8,0.5-4,0.7-6.3,0.7
		c-2.2,0-4.2-0.2-5.9-0.5s-3.2-0.8-4.5-1.5s-2.3-1.6-3.1-2.8c-0.8-1.2-1.4-2.6-1.8-4.3l6-1.1c0.3,1.1,0.7,2.1,1.2,2.8
		c0.6,0.7,1.2,1.2,2,1.6s1.7,0.7,2.7,0.8c1,0.1,2.2,0.2,3.4,0.2s2.3-0.1,3.4-0.3c1-0.2,1.9-0.5,2.7-0.9s1.4-0.9,1.8-1.6
		c0.4-0.6,0.6-1.4,0.6-2.4s-0.3-1.8-0.8-2.4c-0.6-0.6-1.3-1.2-2.3-1.6s-2.1-0.8-3.4-1.1c-1.3-0.3-2.7-0.6-4.2-0.9s-2.9-0.6-4.3-1.1
		s-2.6-1-3.7-1.7c-1.1-0.7-2-1.6-2.6-2.7c-0.7-1.1-1-2.5-1-4.1s0.3-3,0.9-4.2c0.6-1.2,1.5-2.3,2.7-3.1c1.2-0.9,2.6-1.5,4.4-2
		c1.7-0.5,3.7-0.7,6-0.7c1.9,0,3.6,0.2,5.2,0.5c1.6,0.3,3,0.8,4.2,1.6s2.2,1.6,3,2.7c0.8,1.1,1.4,2.4,1.7,4l-6.1,0.8
		c-0.2-0.9-0.5-1.7-1-2.3s-1.1-1.1-1.8-1.5s-1.5-0.6-2.4-0.8s-1.8-0.2-2.8-0.2c-2.5,0-4.4,0.4-5.7,1.2s-1.9,1.9-1.9,3.4
		c0,0.9,0.2,1.6,0.7,2.2s1.1,1,2,1.4c0.8,0.4,1.8,0.7,3,1s2.5,0.6,3.9,0.9c1.6,0.3,3.2,0.7,4.7,1.2c1.6,0.5,2.9,1.1,4.1,1.8
		c1.2,0.7,2.2,1.7,2.9,2.9C834,269.4,834.4,270.9,834.4,272.6z"/>
</g>
<g>
	<path class="st3" d="M384,180.9c0,4.2,0.5,8.1,1.4,11.7c0.9,3.5,2.4,6.6,4.5,9.1c2,2.6,4.6,4.5,7.8,6c3.2,1.4,7,2.1,11.5,2.1
		c2.9,0,5.7-0.3,8.3-0.8c2.6-0.5,4.9-1.4,7-2.5s3.9-2.5,5.4-4.1s2.6-3.5,3.4-5.6l15.8,3.2c-1,2.6-2.5,5.2-4.5,7.8s-4.6,5-7.8,7.2
		c-3.2,2.1-7.1,3.9-11.6,5.3c-4.5,1.4-9.9,2.1-16.1,2.1c-14.2,0-25-3.8-32.5-11.3s-11.2-18.8-11.2-33.9c0-8.4,1.2-15.4,3.7-21.1
		c2.5-5.7,5.7-10.2,9.8-13.7c4.1-3.5,8.7-5.9,14-7.4s10.7-2.2,16.3-2.2c7.4,0,13.7,1.1,19.1,3.4c5.3,2.3,9.7,5.4,13.1,9.5
		s6,9,7.6,14.6c1.6,5.7,2.4,11.9,2.4,18.8v1.8H384z M434,169.4c-0.3-3.8-1-7.2-2-10.2c-1.1-3-2.6-5.6-4.6-7.7
		c-2-2.1-4.4-3.7-7.3-4.8s-6.3-1.7-10.3-1.7c-3.1,0-6.1,0.4-9.1,1.2s-5.6,2.1-8,4s-4.3,4.4-5.8,7.5s-2.4,7-2.6,11.7H434z"/>
	<path class="st3" d="M559,177.1c0,6.6-0.8,12.7-2.3,18.3c-1.5,5.5-3.9,10.3-7.1,14.3c-3.2,4-7.1,7.1-12,9.3
		c-4.8,2.2-10.5,3.3-17,3.3c-3.3,0-6.4-0.3-9.5-1c-3-0.7-5.9-1.7-8.5-3.1c-2.6-1.4-5-3.1-7.2-5.2c-2.1-2.1-4-4.5-5.4-7.3h-0.5
		c0.2,2.2,0.3,4.1,0.3,5.5c0.1,1.5,0.1,3.1,0.1,4.8s0,3.4,0,4.9v38h-17.7V153.4c0-2.2,0-4.3,0-6.3s-0.1-3.8-0.2-5.5s-0.2-4-0.4-7.1
		h17.1c0.3,2.4,0.4,4.4,0.5,6c0.1,1.5,0.2,3.2,0.2,4.9c0.1,1.7,0.1,3.2,0.1,4.6h0.3c6.2-11.7,16.9-17.5,32-17.5
		c6.4,0,11.9,1.1,16.5,3.3s8.5,5.3,11.5,9.3c3,3.9,5.3,8.6,6.7,14.1C558.2,164.7,559,170.7,559,177.1z M540.4,177.1
		c0-10.2-2.1-18-6.2-23.5c-4.2-5.5-10.4-8.3-18.8-8.3c-3.3,0-6.4,0.5-9.5,1.6s-5.8,2.9-8.2,5.4c-2.4,2.5-4.3,5.9-5.8,10
		s-2.2,9.3-2.2,15.5c0,6,0.7,11.1,2.2,15.2c1.4,4.1,3.3,7.4,5.7,9.8c2.4,2.5,5.1,4.2,8.2,5.3c3.1,1,6.2,1.5,9.5,1.5
		c8,0,14.2-2.7,18.6-8C538.2,196.2,540.4,188.1,540.4,177.1z"/>
	<path class="st3" d="M580.1,113.6V98.3h17.5v15.2L580.1,113.6L580.1,113.6z M580.1,220.7v-86.1h17.7v86.1L580.1,220.7L580.1,220.7z
		"/>
	<path class="st3" d="M655.6,166.5l21.7-32h19.5l-31.1,41.7l33,44.4h-19.6L655.6,187L632,220.7h-19.2l32.6-44.3l-31-41.8H634
		L655.6,166.5z"/>
	<path class="st3" d="M727.3,180.9c0,4.2,0.5,8.1,1.4,11.7c0.9,3.5,2.4,6.6,4.5,9.1c2,2.6,4.6,4.5,7.8,6c3.2,1.4,7,2.1,11.5,2.1
		c2.9,0,5.7-0.3,8.3-0.8s4.9-1.4,7-2.5s3.9-2.5,5.4-4.1s2.6-3.5,3.4-5.6l15.8,3.2c-1,2.6-2.5,5.2-4.5,7.8s-4.6,5-7.8,7.2
		c-3.2,2.1-7.1,3.9-11.6,5.3c-4.5,1.4-9.9,2.1-16.1,2.1c-14.2,0-25-3.8-32.5-11.3s-11.2-18.8-11.2-33.9c0-8.4,1.2-15.4,3.7-21.1
		c2.5-5.7,5.7-10.2,9.8-13.7s8.8-5.9,14-7.4c5.3-1.5,10.7-2.2,16.3-2.2c7.4,0,13.7,1.1,19.1,3.4c5.3,2.3,9.7,5.4,13.1,9.5
		c3.4,4.1,6,9,7.6,14.6c1.6,5.7,2.4,11.9,2.4,18.8v1.8H727.3z M777.3,169.4c-0.3-3.8-1-7.2-2-10.2c-1.1-3-2.6-5.6-4.6-7.7
		c-2-2.1-4.4-3.7-7.3-4.8c-2.9-1.1-6.3-1.7-10.3-1.7c-3.1,0-6.1,0.4-9.1,1.2s-5.6,2.1-8,4s-4.3,4.4-5.8,7.5s-2.4,7-2.6,11.7H777.3z"
		/>
	<path class="st3" d="M815.6,220.7V98.3h17.7v122.4L815.6,220.7L815.6,220.7z"/>
</g>
</svg>
